<!-- Generated by IcoMoon.io -->
<svg version="1.1" xmlns="http://www.w3.org/2000/svg" width="32" height="32" viewBox="0 0 32 32">
    <title>hbg</title>
    <path fill="currentColor"
        d="M16 3.692c6.655 0 12.051 5.51 12.051 12.308s-5.396 12.308-12.051 12.308c-6.656 0-12.052-5.51-12.052-12.308s5.396-12.308 12.052-12.308zM15.782 4.356l-0.923 4-4.308 3.077-3.692-0.923 2.462 2.769v5.539l-2.769 2.769 3.692-0.923 4.615 2.769 0.923 3.692 1.231-3.692 4.308-2.769 4 1.231-2.462-3.077v-5.539l2.462-3.077-3.692 1.231-4.616-3.077-1.231-4zM15.782 9.587l5.231 3.385v5.846l-5.231 3.692-4.923-3.385v-6.154l4.923-3.385z">
    </path>
    <path fill="currentColor"
        d="M16 1.25c-7.992 0-14.462 6.608-14.462 14.75s6.47 14.75 14.462 14.75 14.462-6.608 14.462-14.75-6.47-14.75-14.462-14.75zM16 3.096c6.963 0 12.616 5.772 12.616 12.904s-5.653 12.904-12.616 12.904c-6.963 0-12.616-5.772-12.616-12.904s5.652-12.904 12.616-12.904z">
    </path>
</svg>
