<!-- Generated by IcoMoon.io -->
<svg version="1.1" xmlns="http://www.w3.org/2000/svg" viewBox="0 0 41 32">
    <title>lci</title>
    <path fill="currentColor"
        d="M20.251 1.538l3.591 4.703v0.591c0.394 0.141 0.756 0.3 1.084 0.479l1.69-1.704c1.709 1.080 3.089 2.446 4.14 4.098l-1.718 1.718c0.197 0.329 0.376 0.723 0.535 1.183l10.927 3.394-10.927 3.393c-0.16 0.46-0.338 0.854-0.535 1.183l1.718 1.718c-1.051 1.652-2.431 3.018-4.14 4.098l-1.69-1.704c-0.329 0.178-0.69 0.338-1.084 0.479v0.591l-3.591 4.703-3.591-4.703v-0.591c-0.394-0.141-0.756-0.3-1.084-0.479l-1.69 1.704c-1.709-1.080-3.089-2.446-4.14-4.098l1.718-1.718c-0.197-0.329-0.376-0.723-0.535-1.183l-10.928-3.394 10.928-3.394c0.16-0.46 0.338-0.854 0.535-1.183l-1.718-1.718c1.051-1.652 2.431-3.018 4.14-4.098l1.69 1.704c0.329-0.178 0.69-0.338 1.084-0.479v-0.591l3.591-4.703zM20.251 2.552l-0 0-2.985 3.929v0.775c-0.629 0.197-1.225 0.474-1.788 0.831l-0.002-0.002-1.688-1.66c-1.23 0.807-2.309 1.882-3.239 3.225l0.002 0.002 1.674 1.66c-0.347 0.544-0.62 1.15-0.817 1.817l-9.365 2.873 9.365 2.873c0.197 0.667 0.469 1.272 0.817 1.817l-1.676 1.662c0.929 1.343 2.009 2.417 3.239 3.225l1.69-1.662c0.563 0.357 1.159 0.634 1.788 0.831v0.775l2.986 3.929 2.985-3.929v-0.775c0.629-0.197 1.225-0.474 1.788-0.831l0.002 0.002 1.688 1.66c1.23-0.807 2.309-1.882 3.239-3.225l-0.002-0.002-1.674-1.66c0.347-0.544 0.62-1.15 0.817-1.817l9.365-2.873-9.365-2.873c-0.197-0.667-0.469-1.272-0.817-1.817l1.676-1.662c-0.929-1.343-2.009-2.417-3.239-3.225l-1.69 1.662c-0.563-0.357-1.159-0.634-1.788-0.831v-0.775l-2.985-3.929zM22.588 24.928v0.408l-2.338 3.070-2.338-3.070v-0.408c0.61 0.197 1.389 0.296 2.338 0.296s1.727-0.099 2.338-0.296zM14.167 19.394c0.62 1.098 1.483 1.967 2.591 2.605l-3.014 3c-0.976-0.685-1.845-1.549-2.605-2.591l3.028-3.014zM26.334 19.394l3.028 3.014c-0.76 1.042-1.629 1.906-2.605 2.591l-3.014-3c1.108-0.638 1.971-1.507 2.591-2.605zM23.377 22.224l1.225 1.225c-1.199 0.725-2.633 1.109-4.301 1.154l-0.051 0.001-0.051-0.001c-1.668-0.044-3.102-0.429-4.301-1.154l1.225-1.225c0.901 0.498 1.943 0.746 3.126 0.746s2.225-0.249 3.126-0.746zM26.292 16.521c-0.211 1.732-0.746 3.084-2.253 4.337-1.005 0.836-2.267 1.282-3.788 1.338v-2.394c2 0 4.013-1.094 6.041-3.281zM14.209 16.521c2.028 2.187 4.042 3.281 6.041 3.281v2.394c-1.521-0.056-2.784-0.502-3.788-1.338-1.507-1.253-2.042-2.605-2.253-4.337zM12.703 11.733l1.239 1.225c0 0-0.718 1.169-0.718 3.042l0 0.056c0.014 1.84 0.718 2.986 0.718 2.986l-0.001 0.001-0.002 0.002-0.003 0.003-1.233 1.219c-1.211-2.056-1.141-4.267-1.141-4.267s-0.070-2.211 1.141-4.267zM27.799 11.733c1.211 2.056 1.141 4.267 1.141 4.267 0 0.002 0.070 2.212-1.141 4.267l-1.239-1.225c-0-0 0.718-1.169 0.718-3.042v-0l-0-0.056c-0.014-1.84-0.718-2.986-0.718-2.986l0.001-0.001 0.002-0.002 0.003-0.003 1.233-1.219zM20.251 12.985c1.665 0 3.015 1.35 3.015 3.015s-1.35 3.015-3.015 3.015c-1.665 0-3.015-1.35-3.015-3.015s1.35-3.015 3.015-3.015zM11.21 13.831c-0.169 0.648-0.253 1.371-0.253 2.169l0 0.043c0.003 0.781 0.088 1.489 0.253 2.125l-6.985-2.169 6.985-2.169zM29.291 13.831l6.985 2.169-6.985 2.169c0.169-0.648 0.253-1.371 0.253-2.169s-0.084-1.521-0.253-2.169zM20.251 14.085c-1.058 0-1.915 0.858-1.915 1.915s0.858 1.915 1.915 1.915c1.058 0 1.915-0.858 1.915-1.915s-0.858-1.915-1.915-1.915zM20.251 14.328c0.924 0 1.672 0.749 1.672 1.672s-0.749 1.672-1.672 1.672-1.672-0.749-1.672-1.672 0.749-1.672 1.672-1.672zM20.251 14.777c-0.676 0-1.223 0.548-1.223 1.223s0.548 1.223 1.223 1.223c0.676 0 1.223-0.548 1.223-1.223s-0.548-1.223-1.223-1.223zM20.251 9.804c1.521 0.056 2.784 0.502 3.788 1.338 1.507 1.253 2.042 2.605 2.253 4.337-2.028-2.187-4.042-3.281-6.041-3.281v-2.394zM20.251 9.804v2.394c-2 0-4.013 1.094-6.041 3.281 0.211-1.732 0.746-3.084 2.253-4.337 1.005-0.836 2.267-1.281 3.788-1.338zM26.756 7.002c0.976 0.685 1.845 1.549 2.605 2.591l-3.028 3.014c-0.62-1.098-1.483-1.967-2.591-2.605l3.014-2.999zM13.745 7.002l3.014 3c-1.108 0.638-1.971 1.507-2.591 2.605l-3.028-3.014c0.76-1.042 1.629-1.906 2.605-2.591zM20.251 7.396l0.051 0.001c1.668 0.044 3.102 0.429 4.301 1.153l-1.225 1.225c-0.901-0.498-1.943-0.746-3.126-0.746s-2.225 0.249-3.126 0.746l-1.225-1.225c1.199-0.725 2.632-1.109 4.301-1.154l0.051-0.001zM20.251 3.594l2.338 3.070v0.408c-0.61-0.197-1.389-0.296-2.338-0.296s-1.727 0.099-2.338 0.296v-0.408l2.338-3.070z">
    </path>
</svg>
