<!-- Generated by IcoMoon.io -->
<svg version="1.1" xmlns="http://www.w3.org/2000/svg" width="32" height="32" viewBox="0 0 32 32">
    <title>one</title>
    <path fill="currentColor"
        d="M15.593 1.5c-3.13 0-5.981 1.043-8.554 3.13-4.381 3.651-7.719 10.745-3.338 18.673 2.364 4.103 6.294 6.502 11.788 7.198l-0.209-5.946c-2.504-0.313-4.277-1.461-5.529-2.921-1.043-1.148-3.338-4.381-1.461-9.18 1.391-2.99 3.721-4.694 6.989-5.112l0.313-5.842zM15.176 8.906c-2.086 0.209-3.79 1.356-5.112 3.443-1.148 1.878-1.252 5.32 0 7.198 1.043 1.808 2.747 2.956 5.112 3.443-0.139-5.216-0.139-9.91 0-14.083zM16.629 1.5c3.13 0 5.981 1.043 8.554 3.13 4.381 3.651 7.719 10.745 3.338 18.673-2.364 4.103-6.294 6.502-11.788 7.198l0.209-5.946c2.504-0.313 4.277-1.461 5.529-2.921 1.043-1.148 3.338-4.381 1.461-9.18-1.391-2.99-3.721-4.694-6.989-5.112l-0.313-5.842zM17.046 8.906c2.086 0.209 3.79 1.356 5.112 3.443 1.148 1.878 1.252 5.32 0 7.198-1.043 1.808-2.747 2.956-5.112 3.443 0.139-5.216 0.139-9.91 0-14.083z">
    </path>
</svg>
