<!-- Generated by IcoMoon.io -->
<svg version="1.1" xmlns="http://www.w3.org/2000/svg" viewBox="0 0 32 32">
    <title>woe</title>
    <path fill="currentColor"
        d="M6.488 6.556l-2 12.475c4.033 0.692 7.592 2.829 10.675 6.412v-4.6c-1.067-2.342-2.512-4.338-4.338-5.988 1.275-1.117 2.433-2.558 3.475-4.325-2.317-1.967-4.921-3.292-7.812-3.975zM25.512 6.556c-2.892 0.683-5.496 2.008-7.812 3.975 1.042 1.767 2.2 3.208 3.475 4.325-1.825 1.65-3.271 3.646-4.338 5.988v4.6c3.083-3.583 6.642-5.721 10.675-6.412l-2-12.475zM2.338 8.906l-2.337 13.737c3.492-0.541 7.392-0.041 11.7 1.5-2.475-2.508-5.287-3.946-8.437-4.313l1.638-9.95-2.563-0.975zM29.662 8.906l-2.563 0.975 1.638 9.95c-3.15 0.367-5.962 1.804-8.437 4.313 4.308-1.542 8.208-2.042 11.7-1.5l-2.337-13.737zM16 20.294v0c0.892-2.192 2.167-4.008 3.825-5.45-1.617-1.333-2.892-3.15-3.825-5.45-0.933 2.3-2.208 4.116-3.825 5.45 1.623 1.411 2.879 3.181 3.768 5.311l0.057 0.139 0 0z">
    </path>
</svg>
