<!-- Generated by IcoMoon.io -->
<svg version="1.1" xmlns="http://www.w3.org/2000/svg" width="32" height="32" viewBox="0 0 32 32">
    <title>bro</title>
    <path fill="currentColor"
        d="M0.891 4.228l8.158 6.803c-1.172 1.516-1.646 3.274-1.421 5.275 0.421 3.567 3.125 5.558 5.69 5.744 3.336 0.253 4.956-0.966 6.424-2.406l5.726 4.583-1.704 2.075-3.269-2.075s-0.449 0.234-0.921 0.523c-0.015 0.009-0.031 0.019-0.046 0.028l-0.031 0.019c-0.469 0.283-0.919 0.51-0.956 0.529l-0.002 0.001-0.001 0v3.916l-5.22 0.463-0.855-3.669c-0.823-0.16-1.549-0.397-2.18-0.71l-2.8 2.677-4.13-3.254 1.975-3.182c-0.393-0.489-0.706-1.131-0.939-1.925l-3.944-0.21-0.446-5.227 3.733-0.86c0.084-0.878 0.303-1.578 0.656-2.099l-3.498-7.019zM18.682 2.294l0.855 3.669c0.823 0.16 1.549 0.397 2.18 0.71l2.8-2.676 4.13 3.254-1.975 3.182c0.393 0.489 0.706 1.131 0.939 1.925l3.944 0.21 0.446 5.227-3.733 0.86c-0.084 0.878-0.303 1.578-0.656 2.099l3.498 7.019-8.158-6.803c1.172-1.516 1.646-3.274 1.421-5.275-0.421-3.567-3.125-5.558-5.69-5.744-3.336-0.253-4.956 0.966-6.424 2.406l-5.726-4.583 1.704-2.075 3.269 2.075s0.449-0.234 0.921-0.523c0.015-0.010 0.031-0.019 0.046-0.028l0.031-0.019c0.469-0.283 0.919-0.51 0.956-0.529l0.002-0.001 0.001-0v-3.915l5.22-0.463zM10.296 11.933c-0.887 0.978-1.327 2.408-1.282 3.807 0.104 1.961 1.238 3.527 3.016 4.469 3.336 1.45 5.864-0.806 6.472-1.588l-2.782-2.255c-0.518 0.746-1.565 1.028-2.366 0.415-0.993-0.788-0.65-1.991-0.193-2.442l-2.866-2.406zM19.97 11.791c-3.336-1.45-5.864 0.806-6.472 1.588l2.782 2.255c0.518-0.746 1.565-1.028 2.366-0.415 0.993 0.788 0.65 1.991 0.193 2.442l2.866 2.406c0.887-0.978 1.327-2.408 1.282-3.807-0.104-1.961-1.238-3.527-3.016-4.469z">
    </path>
</svg>
