<svg version="1.1" xmlns="http://www.w3.org/2000/svg" viewBox="0 0 32 32">
    <path fill="currentColor"
        d="M13.432 24.501c0.672 0.545 1.528 1.179 2.568 1.902v-1.731c-0.85 0-1.706-0.057-2.568-0.171zM18.567 24.501c-0.862 0.114-1.718 0.171-2.568 0.171v1.731c1.040-0.723 1.895-1.357 2.568-1.902zM4.798 10.827s-0.456 2.625 3.329 4.717c2.561 1.458 5.186 2.206 7.874 2.244v6.333c-2.498 0-4.685-0.495-6.561-1.483-1.712-0.925-3.208-2.257-4.489-3.994-0.444-0.672-0.697-1.331-0.761-1.978-0.241-2.523-0.038-4.469 0.609-5.839zM27.202 10.827c0.647 1.369 0.85 3.316 0.609 5.839-0.063 0.647-0.317 1.306-0.761 1.978-1.28 1.737-2.777 3.068-4.488 3.994-1.876 0.989-4.064 1.483-6.561 1.483v-6.333c2.688-0.038 5.313-0.786 7.874-2.244 3.785-2.092 3.328-4.717 3.328-4.717zM18.4 19.605c-0.018-0.007-0.039-0.011-0.060-0.011-0.073 0-0.135 0.045-0.16 0.11l-0.001 0.001c-0.11 0.292-0.157 0.624-0.141 0.994-0.090 0.089-0.184 0.177-0.28 0.263l-0.007 0.007c-0.003 0.002-0.005 0.005-0.007 0.007v0c-0.078 0.078-0.341 0.212-0.568 0.26-0.295 0.063-0.505-0.001-0.625-0.221-0.131-0.241-0.12-0.42-0.007-0.577 0.084-0.116 0.194-0.195 0.376-0.295 0.090-0.049 0.185-0.049 0.303 0.005 0.021 0.010 0.046 0.016 0.073 0.016 0.094 0 0.171-0.077 0.171-0.171 0-0.069-0.041-0.128-0.099-0.155l-0.001-0.001c-0.212-0.098-0.421-0.098-0.61 0.005-0.224 0.123-0.367 0.225-0.49 0.395-0.19 0.263-0.209 0.584-0.016 0.94 0.202 0.373 0.568 0.483 0.997 0.392l0.018-0.004c0.279-0.063 0.585-0.218 0.714-0.341l0.003-0.003 0.042-0.037c0.025-0.023 0.045-0.041 0.065-0.059l-0.005 0.004c0.023 0.144 0.053 0.292 0.091 0.445 0.164 0.656 0.032 1.219-0.4 1.709-0.027 0.030-0.043 0.070-0.043 0.113 0 0.094 0.077 0.171 0.171 0.171 0.051 0 0.097-0.023 0.128-0.058l0-0c0.506-0.575 0.666-1.254 0.475-2.019-0.17-0.679-0.17-1.234-0.006-1.667 0.007-0.018 0.011-0.039 0.011-0.060 0-0.073-0.045-0.135-0.11-0.16l-0.001-0.001zM10.96 19.043c-0.094 0-0.171 0.077-0.171 0.171s0.077 0.171 0.171 0.171v0l0.020 0c0.046 0 0.092 0.003 0.137 0.007l-0.006-0.001 0.006 0.001-0.001 0.003c-0.058 0.445-0.232 0.804-0.522 1.084-0.032 0.031-0.053 0.075-0.053 0.123 0 0.094 0.077 0.171 0.171 0.171 0.046 0 0.088-0.018 0.119-0.048l-0 0c0.194-0.187 0.351-0.411 0.458-0.661l0.005-0.013c0.375-0.153 0.707-0.228 0.997-0.228l0.012 0c0.226 0.004 0.337 0.115 0.368 0.384l0.001 0.008 0 0.009c0.005 0.326-0.142 0.525-0.472 0.629l-0.008 0.002 0.007-0.001c-0.121 0.026-0.214-0.001-0.3-0.087-0.031-0.031-0.074-0.050-0.121-0.050-0.094 0-0.171 0.077-0.171 0.171 0 0.047 0.019 0.090 0.050 0.121v0c0.168 0.168 0.379 0.23 0.613 0.179 0.006-0.001 0.010-0.002 0.015-0.004l-0.001 0c0.372-0.113 0.608-0.336 0.694-0.653 0.337-0.191 0.686-0.275 1.053-0.253 0.148 0.009 0.223 0.054 0.256 0.136l0.003 0.008c0.038 0.103 0.026 0.275-0.045 0.51l-0.002 0.007-0.001 0.003c-0.164 0.338-0.383 0.422-0.725 0.282-0.019-0.008-0.042-0.013-0.065-0.013-0.094 0-0.171 0.077-0.171 0.171 0 0.071 0.043 0.132 0.105 0.158l0.001 0.001c0.516 0.213 0.929 0.047 1.171-0.466 0.003-0.006 0.006-0.014 0.008-0.021l0.001-0.001c0.206-0.663 0.037-1.082-0.514-1.115-0.362-0.022-0.711 0.044-1.045 0.196-0.060-0.418-0.31-0.652-0.715-0.652-0.266 0-0.556 0.053-0.869 0.158 0.024-0.107 0.042-0.236 0.051-0.366l0.001-0.008c0-0.003 0.001-0.007 0.001-0.012 0-0.078-0.052-0.144-0.123-0.164l-0.001-0c-0.106-0.030-0.235-0.045-0.39-0.045zM21.241 19.465c-0.219-0.345-0.503-0.473-0.807-0.329-0.005 0.002-0.009 0.005-0.013 0.007l0.001-0.001c-0.296 0.169-0.573 0.403-0.833 0.701-0.035-0.11-0.078-0.214-0.13-0.31-0.029-0.054-0.086-0.090-0.151-0.090-0.013 0-0.026 0.002-0.038 0.005l0.001-0c-0.152 0.034-0.29 0.123-0.414 0.263-0.027 0.030-0.044 0.070-0.044 0.114 0 0.094 0.077 0.171 0.171 0.171 0.051 0 0.097-0.022 0.128-0.058l0-0 0.011-0.012c0.032-0.035 0.064-0.063 0.096-0.086l0.004-0.003 0 0.001c0.109 0.273 0.151 0.616 0.125 1.029l-0.002 0.022-0.001 0.005c-0.009 0.059-0.021 0.097-0.028 0.109-0.018 0.026-0.028 0.059-0.028 0.093 0 0.094 0.077 0.171 0.171 0.171 0.058 0 0.11-0.029 0.141-0.074l0.001-0.001c0.042-0.064 0.068-0.149 0.084-0.261 0.001-0.003 0.001-0.007 0.001-0.011l0-0.001c0.016-0.232 0.014-0.447-0.010-0.646 0.277-0.363 0.574-0.636 0.889-0.821l0.017-0.010 0.002-0.001c0.122-0.054 0.228-0.005 0.358 0.195l0.005 0.007 0.006 0.010c0.168 0.317 0.14 0.577-0.085 0.819l-0.006 0.007 0.002-0.002-0.010 0.008c-0.098 0.085-0.197 0.123-0.305 0.118l-0.012-0.001c-0.004-0-0.008-0.001-0.013-0.001-0.094 0-0.171 0.077-0.171 0.171 0 0.090 0.070 0.164 0.157 0.171l0.001 0c0.214 0.016 0.412-0.058 0.585-0.215 0.003-0.003 0.006-0.006 0.008-0.008l0-0c0.344-0.36 0.391-0.79 0.141-1.247-0.002-0.004-0.004-0.007-0.006-0.010l0.001 0.001zM24.835 17.201c-0.161-0.125-0.349-0.128-0.523-0.012-0.004 0.003-0.007 0.005-0.011 0.007l0.001-0c-0.309 0.24-0.563 0.569-0.763 0.984-0.24-0.214-0.494-0.249-0.721-0.071-0.003 0.002-0.006 0.005-0.008 0.007l0-0c-0.291 0.261-0.529 0.545-0.715 0.853-0.052-0.106-0.101-0.193-0.155-0.276l0.006 0.011c-0.031-0.048-0.084-0.079-0.144-0.079-0.031 0-0.060 0.008-0.086 0.023l0.001-0.001c-0.103 0.059-0.21 0.144-0.322 0.256-0.031 0.031-0.050 0.074-0.050 0.121 0 0.094 0.077 0.171 0.171 0.171 0.047 0 0.090-0.019 0.121-0.050v0l0.016-0.016c0.029-0.028 0.059-0.056 0.090-0.083l0.004-0.003 0.005 0.008c0.171 0.322 0.262 0.679 0.276 1.071 0.162-0.067 0.12-0.047 0.079-0.028l-0.205 0.086c-0.060 0.028-0.101 0.087-0.101 0.156 0 0.094 0.077 0.171 0.171 0.171 0.026 0 0.051-0.006 0.073-0.016l-0.001 0.001c1.34-0.613 2.439-1.22 3.299-1.823l0.007-0.005c0.258-0.201 0.431-0.468 0.517-0.795 0.003-0.012 0.005-0.027 0.005-0.041 0-0.094-0.077-0.171-0.171-0.171-0.079 0-0.145 0.053-0.165 0.125l-0 0.001-0.006 0.021c-0.058 0.207-0.159 0.378-0.304 0.517 0.028-0.176 0.013-0.364-0.045-0.561-0.002-0.006-0.003-0.010-0.005-0.014l0.001 0.001c-0.099-0.261-0.209-0.442-0.34-0.545zM7.187 16.592c-0.008-0.002-0.018-0.002-0.028-0.002-0.094 0-0.171 0.077-0.171 0.171 0 0.083 0.059 0.152 0.137 0.168l0.001 0 0.017 0.003c0.038 0.007 0.073 0.016 0.105 0.025l0.006 0.002-0.006 0.011c-0.18 0.374-0.395 0.663-0.644 0.868-0.025-0.022-0.051-0.044-0.077-0.066-0.030-0.026-0.069-0.042-0.112-0.042-0.094 0-0.171 0.077-0.171 0.171 0 0.051 0.023 0.098 0.059 0.129l0 0c0.986 0.858 2.037 1.582 3.152 2.171 0.003 0.002 0.007 0.004 0.011 0.006l0.001 0.001c0.209 0.090 0.479 0.111 0.811 0.070 0.085-0.011 0.15-0.083 0.15-0.17 0-0.094-0.077-0.171-0.171-0.171-0.007 0-0.015 0.001-0.022 0.001l-0.023 0.003c-0.257 0.030-0.457 0.014-0.598-0.042l-0.007-0.003-0.045-0.024c0.357-0.141 0.586-0.414 0.672-0.812l0.001-0.006c0.053-0.303-0.116-0.543-0.459-0.699-0.262-0.119-0.586-0.158-0.969-0.12 0.001-0.009 0.002-0.018 0.003-0.027l0.001-0.008c0.031-0.436-0.167-0.729-0.568-0.825-0.243-0.058-0.5-0.088-0.77-0.090 0.049-0.088 0.104-0.2 0.154-0.315l0.010-0.027c0.009-0.020 0.014-0.043 0.014-0.067 0-0.059-0.030-0.111-0.076-0.142l-0.001-0.001c-0.098-0.066-0.227-0.111-0.388-0.14zM23.032 18.376l-0.022 0.020c-0.328 0.3-0.579 0.63-0.754 0.993 0.054 0.185 0.089 0.377 0.105 0.577 0.367-0.175 0.715-0.349 1.041-0.523 0.157-0.447 0.143-0.752-0.018-0.932-0.159-0.177-0.257-0.205-0.351-0.136zM8.704 18.591c-0.109 0.227-0.291 0.375-0.538 0.441l-0.055-0.036c0.305 0.207 0.617 0.405 1.011 0.632 0.441-0.052 0.687-0.255 0.773-0.626l0.002-0.011 0.001-0.005c0.018-0.122-0.052-0.22-0.252-0.314l-0.013-0.006c-0.229-0.104-0.538-0.131-0.927-0.075zM19.867 18.331c-0.126-0.306-0.37-0.41-0.643-0.254-0.008 0.005-0.016 0.010-0.022 0.015l0-0c-0.341 0.273-0.605 0.646-0.794 1.116-0.008 0.019-0.013 0.042-0.013 0.065 0 0.094 0.077 0.171 0.171 0.171 0.072 0 0.134-0.045 0.159-0.108l0.001-0.001 0.011-0.028c0.162-0.395 0.382-0.705 0.659-0.933l0.009-0.007 0.006-0.003c0.066-0.034 0.089-0.021 0.132 0.080l0.003 0.008-0.002-0.006 0.002 0.006c0.019 0.076-0.005 0.189-0.084 0.338-0.012 0.023-0.020 0.051-0.020 0.081 0 0.094 0.077 0.171 0.171 0.171 0.065 0 0.122-0.036 0.15-0.090l0.001-0.001c0.121-0.226 0.161-0.428 0.108-0.605-0.002-0.007-0.004-0.012-0.006-0.017l0.001 0.001zM13.89 18.518c-0.032-0.040-0.080-0.065-0.135-0.065-0.040 0-0.077 0.014-0.106 0.037l0.001-0c-0.235 0.185-0.5 0.365-0.798 0.538-0.051 0.030-0.085 0.085-0.085 0.148 0 0.094 0.077 0.171 0.171 0.171 0.032 0 0.062-0.008 0.087-0.024l-0.001 0.001c0.311-0.181 0.59-0.37 0.838-0.565 0.040-0.032 0.065-0.080 0.065-0.135 0-0.040-0.014-0.077-0.037-0.106l0 0.001zM24.506 17.47l-0.014 0.011c-0.293 0.234-0.533 0.569-0.718 1.007 0.090 0.198 0.104 0.441 0.047 0.725 0.291-0.163 0.564-0.326 0.819-0.488l0.001-0.001c0.006-0.010 0.014-0.020 0.022-0.028 0.219-0.23 0.283-0.497 0.193-0.825l-0.003-0.011-0.005-0.011c-0.074-0.192-0.15-0.317-0.217-0.373l-0.006-0.005c-0.040-0.031-0.067-0.033-0.116-0.002zM7.256 17.631c-0.118 0.166-0.248 0.309-0.387 0.432l-0.027-0.022c0.271 0.226 0.55 0.442 0.883 0.683 0.464 0.041 0.69-0.128 0.743-0.543l0.001-0.010 0.001-0.010c0.015-0.26-0.075-0.395-0.296-0.451l-0.012-0.003c-0.278-0.067-0.578-0.092-0.901-0.076zM23.006 17.365c-0.028-0.021-0.064-0.034-0.103-0.034-0.056 0-0.105 0.027-0.137 0.068l-0 0.001-0.057 0.076c-0.021 0.028-0.034 0.064-0.034 0.103 0 0.094 0.077 0.171 0.171 0.171 0.056 0 0.105-0.027 0.137-0.068l0-0.001 0.057-0.076c0.021-0.028 0.034-0.064 0.034-0.103 0-0.056-0.027-0.105-0.068-0.137l-0.001-0zM9.464 17.077c-0.031-0.031-0.074-0.050-0.121-0.050-0.094 0-0.171 0.077-0.171 0.171 0 0.047 0.019 0.090 0.050 0.121l0.076 0.076c0.031 0.031 0.074 0.050 0.121 0.050 0.094 0 0.171-0.077 0.171-0.171 0-0.047-0.019-0.090-0.050-0.121v0zM23.691 16.947c-0.028-0.021-0.064-0.034-0.103-0.034-0.056 0-0.105 0.027-0.137 0.068l-0 0.001-0.057 0.076c-0.021 0.028-0.034 0.064-0.034 0.103 0 0.094 0.077 0.171 0.171 0.171 0.056 0 0.105-0.027 0.137-0.068l0-0.001 0.057-0.076c0.021-0.028 0.034-0.064 0.034-0.103 0-0.056-0.027-0.105-0.068-0.137l-0.001-0zM23.163 16.684c-0.029-0.023-0.066-0.037-0.107-0.037-0.054 0-0.102 0.025-0.133 0.064l-0 0-0.076 0.095c-0.023 0.029-0.037 0.066-0.037 0.107 0 0.094 0.077 0.171 0.171 0.171 0.054 0 0.102-0.025 0.133-0.064l0-0 0.076-0.095c0.023-0.029 0.037-0.066 0.037-0.107 0-0.054-0.025-0.102-0.064-0.133l-0-0zM15.92 11.72l-0.080 0c-2.599 0.016-4.936 1.044-7.011 3.081 2.447 1.382 4.837 2.073 7.17 2.073v-5.154l-0.080-0.001zM16.080 11.72l-0.080 0.001v5.154c2.333 0 4.723-0.691 7.17-2.073-2.075-2.038-4.412-3.065-7.011-3.081l-0.080-0zM4.912 9.438h-4.336c-0.558 0-0.71 0.266-0.456 0.799 0.254 0.507 1.388 2.048 3.404 4.621-0.063-2.168 0.399-3.975 1.388-5.42zM27.088 9.438c0.989 1.445 1.452 3.252 1.388 5.42 2.016-2.574 3.151-4.114 3.404-4.621 0.254-0.533 0.101-0.799-0.456-0.799zM16 5.597v5.192c-3.068 0-5.826 1.255-8.273 3.765-1.56-1.078-2.32-2.162-2.282-3.252 0.152-1.75 1.331-3.176 3.538-4.279 2.118-0.951 4.457-1.426 7.018-1.426zM16 5.597c2.561 0 4.901 0.475 7.018 1.426 2.206 1.103 3.386 2.53 3.538 4.279 0.038 1.090-0.723 2.175-2.282 3.252-2.447-2.511-5.205-3.765-8.273-3.765zM10.884 8.468c-0.18 0-0.315 0.024-0.412 0.081-0.111 0.067-0.132 0.216-0.085 0.416-0.52-0.026-0.812 0.028-1.029 0.18-0.197 0.14-0.286 0.339-0.266 0.575-0.477 0.005-0.737 0.085-0.989 0.261-0.242 0.173-0.315 0.43-0.216 0.727 0.002 0.006 0.003 0.010 0.006 0.014l-0.001-0.001c0.092 0.214 0.229 0.367 0.41 0.45 0.045 0.021 0.098 0.041 0.153 0.056l0.007 0.002c-0.031 0.024-0.062 0.048-0.093 0.072l-0.040 0.032 0.005-0.003c-0.077 0.051-0.144 0.066-0.21 0.051-0.011-0.003-0.024-0.004-0.037-0.004-0.094 0-0.171 0.077-0.171 0.171 0 0.081 0.057 0.149 0.133 0.167l0.001 0c0.162 0.036 0.323 0 0.474-0.101 0.005-0.003 0.008-0.006 0.012-0.008l-0.001 0c0.789-0.626 1.704-1.197 2.746-1.711 0.057-0.029 0.094-0.086 0.094-0.153 0-0.094-0.077-0.171-0.171-0.171-0.027 0-0.053 0.006-0.076 0.018l0.001-0.001-0.048 0.024c-0.149-0.224-0.261-0.438-0.326-0.614l-0.005-0.015c-0.021-0.058-0.035-0.11-0.043-0.15l-0.002-0.010 0.004-0.001c0.042-0.008 0.1-0.013 0.174-0.013 0.094 0 0.171-0.077 0.171-0.171s-0.077-0.171-0.171-0.171v0zM22.862 9.829c-0.054 0.023-0.116 0.111-0.171 0.275l-0.003 0.008-0.002 0.010c-0.067 0.306 0.001 0.544 0.205 0.737l0.060 0.036c0.182 0.118 0.361 0.239 0.49 0.332l0.007-0.020c0.053-0.136 0.116-0.266 0.18-0.377-0.149-0.389-0.33-0.693-0.544-0.912l-0.009-0.009-0.003-0.002c-0.099-0.076-0.164-0.095-0.206-0.080zM8.302 10.262c-0.111 0.080-0.141 0.175-0.093 0.328l0.002 0.005 0.004 0.008c0.057 0.127 0.13 0.209 0.22 0.253l0.010 0.005c0.105 0.047 0.241 0.075 0.41 0.079l-0.044 0.030c0.247-0.178 0.5-0.349 0.819-0.547-0.041-0.013-0.080-0.028-0.117-0.045-0.137-0.062-0.244-0.169-0.319-0.314-0.474-0.007-0.685 0.054-0.891 0.198zM15.087 7.346c-0.15 0-0.276 0.036-0.373 0.114-0.039 0.032-0.064 0.080-0.064 0.133 0 0.094 0.077 0.171 0.171 0.171 0.041 0 0.078-0.014 0.107-0.037l-0.001 0 0.005-0.004c0.029-0.020 0.075-0.033 0.141-0.034l0.008-0 0.012 0.001c0.189 0.013 0.33 0.086 0.435 0.222l0.016 0.022c0.089 0.126 0.092 0.241 0.011 0.377l-0.002 0.003 0.001-0.002-0.005 0.006c-0.15 0.183-0.34 0.263-0.587 0.248l-0.016-0.001c-0.263-0.021-0.488-0.121-0.681-0.302-0.063-0.301-0.177-0.548-0.344-0.742-0.032-0.036-0.078-0.059-0.129-0.059-0.094 0-0.171 0.077-0.171 0.171 0 0.043 0.016 0.082 0.042 0.112l-0-0c0.211 0.244 0.32 0.623 0.32 1.143 0 0.596 0.19 1.145 0.567 1.644 0.032 0.040 0.080 0.066 0.135 0.066 0.094 0 0.171-0.077 0.171-0.171 0-0.038-0.012-0.073-0.033-0.102l0.001 0.001c-0.333-0.44-0.498-0.917-0.498-1.437 0-0.055-0.001-0.109-0.003-0.161 0.181 0.102 0.381 0.162 0.598 0.18 0.374 0.030 0.683-0.102 0.909-0.388 0.003-0.005 0.007-0.010 0.010-0.015l0.001-0.001c0.164-0.262 0.155-0.535-0.026-0.782-0.171-0.233-0.415-0.359-0.719-0.374-0.002-0-0.006-0-0.008-0h-0zM21.636 9.126c-0.059 0.012-0.125 0.063-0.193 0.176l-0.005 0.009-0.001 0.001 0-0-0.002 0.005c-0.093 0.19-0.019 0.464 0.256 0.83l0.109 0.056c0.211 0.118 0.421 0.239 0.531 0.31l0.003 0.002c-0.024-0.152-0.016-0.314 0.024-0.488l0-0.001c0.001-0.005 0.002-0.009 0.003-0.012l0.003-0.011c0.008-0.025 0.017-0.049 0.023-0.063-0.141-0.319-0.361-0.585-0.665-0.799l-0.004-0.003c-0.013-0.010-0.046-0.019-0.081-0.012zM9.557 9.425c-0.114 0.081-0.149 0.188-0.109 0.356l0.002 0.010 0.004 0.012c0.044 0.135 0.107 0.218 0.19 0.259l0.009 0.004c0.11 0.050 0.256 0.077 0.436 0.080l-0.083 0.045c0.221-0.13 0.445-0.255 0.768-0.421-0.103-0.157-0.19-0.31-0.258-0.452-0.544-0.040-0.804-0.001-0.961 0.109zM17.958 7.736c-0.435-0.15-0.731 0.047-0.796 0.519-0.001 0.006-0.001 0.012-0.002 0.019v0c-0.015 0.558 0.267 0.89 0.803 0.936 0.005 0.001 0.010 0.001 0.015 0.001 0.094 0 0.171-0.077 0.171-0.171 0-0.089-0.068-0.163-0.156-0.171l-0.014-0.001c-0.337-0.033-0.483-0.204-0.477-0.57l0-0.006 0.001-0.002c0.037-0.253 0.122-0.306 0.343-0.23 0.276 0.096 0.512 0.244 0.709 0.445-0.005 0.033-0.007 0.065-0.007 0.097 0 0.14 0.031 0.307 0.112 0.461 0.127 0.24 0.352 0.393 0.675 0.414 0.003 0 0.007 0.001 0.011 0.001 0.094 0 0.171-0.077 0.171-0.171 0-0.090-0.071-0.165-0.159-0.171l-0.001-0c-0.201-0.013-0.322-0.095-0.395-0.233-0.051-0.097-0.073-0.211-0.073-0.3 0-0.102 0.052-0.225 0.128-0.295s0.164-0.081 0.282-0.013c0.237 0.136 0.467 0.352 0.689 0.65l0.003 0.003-0.002 0.028c-0.015 0.204-0.007 0.44 0.024 0.694 0.011 0.085 0.083 0.15 0.17 0.15 0.094 0 0.171-0.077 0.171-0.171 0-0.007-0.001-0.015-0.001-0.021l0 0.001c-0.042-0.343-0.036-0.637 0.007-0.843l0.003-0.014c0.012-0.055 0.027-0.101 0.041-0.133l0.001-0.002c0.041 0.018 0.088 0.049 0.14 0.094 0.030 0.026 0.070 0.042 0.112 0.042 0.094 0 0.171-0.077 0.171-0.171 0-0.051-0.023-0.097-0.058-0.129l-0-0c-0.124-0.109-0.248-0.175-0.374-0.193-0.14-0.020-0.245 0.070-0.314 0.236-0.195-0.223-0.4-0.397-0.614-0.519-0.249-0.142-0.498-0.112-0.683 0.058-0.035 0.032-0.066 0.067-0.093 0.106l-0.002 0.002c-0.212-0.188-0.457-0.33-0.735-0.426zM13.303 7.732c-0.171-0.043-0.318-0.058-0.443-0.042-0.080 0.010-0.142 0.074-0.149 0.154l-0 0.001c-0.005 0.054-0.008 0.117-0.008 0.18 0 0.037 0.001 0.073 0.003 0.11l-0-0.005c-0.279-0.091-0.537-0.137-0.775-0.137-0.387 0-0.618 0.249-0.665 0.685-0.001 0.003-0.001 0.006-0.001 0.010l-0 0.001c-0.016 0.347 0.154 0.622 0.488 0.805 0.009 0.005 0.019 0.010 0.031 0.013l0.001 0.001c0.214 0.066 0.429 0.033 0.634-0.094 0.050-0.031 0.084-0.085 0.084-0.147 0-0.094-0.077-0.171-0.171-0.171-0.034 0-0.066 0.010-0.093 0.027l0.001-0.001-0.013 0.008c-0.111 0.065-0.214 0.083-0.318 0.057l-0.008-0.002-0.011-0.006c-0.2-0.117-0.289-0.265-0.284-0.461l0-0.008 0.001-0.009c0.031-0.263 0.129-0.366 0.323-0.366 0.245 0 0.523 0.059 0.836 0.18 0.059 0.219 0.159 0.427 0.299 0.623 0.032 0.044 0.082 0.072 0.139 0.072 0.094 0 0.171-0.077 0.171-0.171 0-0.037-0.012-0.072-0.032-0.1l0.001 0.001-0.014-0.019c-0.189-0.272-0.284-0.566-0.286-0.887v-0.002l0.010 0.001c0.049 0.006 0.105 0.016 0.165 0.032 0.012 0.003 0.027 0.005 0.041 0.005 0.094 0 0.171-0.077 0.171-0.171 0-0.080-0.055-0.147-0.128-0.166l-0.001-0zM8.6 9.158c-0.032-0.038-0.079-0.062-0.132-0.062-0.042 0-0.080 0.015-0.11 0.040l0-0-0.114 0.095c-0.038 0.032-0.062 0.079-0.062 0.132 0 0.094 0.077 0.171 0.171 0.171 0.042 0 0.080-0.015 0.11-0.040l-0 0 0.114-0.095c0.038-0.032 0.062-0.079 0.062-0.132 0-0.042-0.015-0.080-0.040-0.11l0 0zM9.266 8.721c-0.032-0.038-0.079-0.062-0.132-0.062-0.042 0-0.080 0.015-0.11 0.040l0-0-0.114 0.095c-0.038 0.032-0.062 0.079-0.062 0.132 0 0.094 0.077 0.171 0.171 0.171 0.042 0 0.080-0.015 0.11-0.040l-0 0 0.114-0.095c0.038-0.032 0.062-0.079 0.062-0.132 0-0.042-0.015-0.080-0.040-0.11l0 0zM8.733 8.587c-0.032-0.038-0.079-0.062-0.132-0.062-0.042 0-0.080 0.015-0.11 0.040l0-0-0.114 0.095c-0.038 0.032-0.062 0.079-0.062 0.132 0 0.094 0.077 0.171 0.171 0.171 0.042 0 0.080-0.015 0.11-0.040l-0 0 0.114-0.095c0.038-0.032 0.062-0.079 0.062-0.132 0-0.042-0.015-0.080-0.040-0.11l0 0zM22.954 8.563c-0.029-0.023-0.066-0.037-0.107-0.037-0.094 0-0.171 0.077-0.171 0.171 0 0.054 0.025 0.102 0.064 0.133l0 0 0.095 0.076c0.029 0.023 0.066 0.037 0.107 0.037 0.094 0 0.171-0.077 0.171-0.171 0-0.054-0.025-0.102-0.064-0.133l-0-0zM18.563 6.681c-0.032-0.037-0.078-0.060-0.13-0.060-0.094 0-0.171 0.077-0.171 0.171 0 0.044 0.017 0.085 0.045 0.115l-0-0c0.189 0.214 0.39 0.453 0.604 0.717 0.032 0.039 0.080 0.063 0.133 0.063 0.094 0 0.171-0.077 0.171-0.171 0-0.041-0.014-0.079-0.038-0.108l0 0c-0.217-0.268-0.422-0.511-0.613-0.728zM12.664 6.669c-0.175-0.053-0.351-0.026-0.518 0.074-0.008 0.005-0.014 0.010-0.020 0.015l0-0c-0.196 0.161-0.276 0.343-0.174 0.522 0.069 0.121 0.183 0.219 0.338 0.296 0.023 0.012 0.049 0.019 0.078 0.019 0.094 0 0.171-0.077 0.171-0.171 0-0.067-0.038-0.125-0.095-0.153l-0.001-0.001-0.014-0.007c-0.086-0.045-0.144-0.094-0.176-0.145l0.001-0.001c0.010-0.019 0.033-0.046 0.070-0.079l0.009-0.008c0.082-0.046 0.156-0.056 0.232-0.033 0.312 0.093 0.454 0.165 0.774 0.441 0.030 0.026 0.069 0.042 0.112 0.042 0.094 0 0.171-0.077 0.171-0.171 0-0.051-0.023-0.098-0.059-0.129l-0-0c-0.36-0.311-0.546-0.404-0.899-0.51zM21.919 8.861l-0.006-0.004c-0.088-0.062-0.214-0.092-0.343-0.067-0.166 0.032-0.314 0.15-0.431 0.353l-0.003 0.006c-0.102 0.195-0.108 0.415-0.025 0.658-0.101-0.083-0.192-0.181-0.274-0.297-0.031-0.045-0.083-0.074-0.141-0.074-0.094 0-0.171 0.077-0.171 0.171 0 0.038 0.012 0.072 0.033 0.101l-0.001-0.001c0.167 0.237 0.371 0.42 0.611 0.547 0.329 0.174 0.625 0.338 0.986 0.552 0.261 0.153 0.433 0.261 0.604 0.371l-0.075-0.045c0.009 0.007 0.018 0.013 0.028 0.018 0.326 0.209 0.63 0.419 0.906 0.63 0.028 0.022 0.064 0.035 0.104 0.035 0.094 0 0.171-0.077 0.171-0.171 0-0.055-0.026-0.105-0.067-0.136l-0.001-0c-0.006-0.005-0.037-0.029-0.068-0.053l-0.028-0.020c0.088-0.255 0.214-0.494 0.377-0.719l0.011-0.015 0.008 0.011c0.019 0.027 0.034 0.056 0.048 0.087 0.027 0.060 0.087 0.102 0.157 0.102 0.094 0 0.171-0.077 0.171-0.171 0-0.025-0.006-0.049-0.015-0.071l0.001 0.001c-0.063-0.141-0.157-0.259-0.282-0.353-0.028-0.021-0.064-0.034-0.103-0.034-0.053 0-0.099 0.024-0.131 0.061l-0 0c-0.035 0.042-0.073 0.089-0.11 0.138l-0.006 0.008c-0.151-0.336-0.332-0.611-0.544-0.823-0.005-0.005-0.010-0.009-0.015-0.013l-0.001-0c-0.267-0.211-0.511-0.218-0.697-0.046-0.164-0.289-0.391-0.536-0.68-0.739l0.002 0.001 0.001 0.001-0.002-0.001z">
    </path>
</svg>
