<!-- Generated by IcoMoon.io -->
<svg version="1.1" xmlns="http://www.w3.org/2000/svg" width="32" height="32" viewBox="0 0 32 32">
    <title>mom</title>
    <path fill="currentColor"
        d="M10.937 13.166l0.692-0.044 0.665 0.466 0.319 1.811 1.811-0.319 0.311 0.217 0.333 1.886 1.886-0.333 14.997 10.501c-1.571-0.086-3.362-0.393-5.374-0.919-5.638-4.476-9.201-7.037-10.688-7.683s-3.131-1.509-4.93-2.592l-0.022-2.991zM13.261 23.919l-0.027 3.816c3.846 0.489 7.285-0.079 10.317-1.703l-3.638-2.548c-1.79 0.73-4.007 0.875-6.652 0.434zM7.488 24.703c1.008 1.015 2.351 1.867 4.029 2.557l0.165-3.918c-0.624-0.305-1.099-0.571-1.424-0.799l-2.769 2.161zM15.091 15.546l0.226 1.283 1.282-0.226-1.508-1.056zM12.606 13.806l0.226 1.283 1.283-0.226-1.508-1.056zM7.196 17.093l-2.392 3.416c0.597 1.476 1.125 2.485 1.584 3.027l0.604-2.090 2.046-0.088c-0.955-1.595-1.569-3.016-1.841-4.265zM8.169 13.344l2.373 5.299 0.050-5.453-2.423 0.155zM7.073 10.659l0.053 1.624-3.169 4.526 0.066 1.7 3.945-5.635 2.995-0.217-3.062-2.144-0.83 0.146zM2.001 6.381l0.022 1.007 4.171 2.92 1.22-0.137-5.413-3.79zM0.049 5.013l0.057 2.090 1.473-0.026-0.022-1.007-1.508-1.056zM1.959 6.351l5.43 3.802-0.289-1.197-4.183-2.929-0.957 0.325zM0.001 4.98l1.513 1.059 0.957-0.325-0.481-1.398-1.99 0.663zM11.421 12.445l2.826-1.005c1.638 1.324 3.016 2.576 4.134 3.757s4.755 3.661 10.908 7.439c1.187 1.715 2.090 3.298 2.71 4.749l-15.043-10.533-0.334-1.892-1.892 0.334-0.312-0.218-0.32-1.816-1.816 0.32-0.668-0.467-0.196-0.668zM24.294 13.923c0.254 1.148 0.211 2.154-0.129 3.017l3.416 2.392c0.696-2.819 0.649-5.365-0.141-7.637-0.849 1.213-1.898 1.955-3.146 2.227zM19.595 8.451c1.529 1.027 2.779 2.232 3.749 3.617 0.997-0.228 1.961-1.007 2.893-2.338-1.316-2.024-2.945-3.538-4.885-4.545zM15.088 15.544l1.513 1.059-0.227-1.286-1.286 0.227zM12.595 13.799l1.513 1.059-0.227-1.286-1.286 0.227zM16.126 4.434l-2.33 3.328c1.538-0.245 3.020-0.221 4.446 0.072l1.682-3.252c-1.296-0.29-2.562-0.339-3.798-0.147zM10.638 9.775l0.685 2.337 5.123-1.917-5.808-0.419zM7.731 9.663l0.147 0.832 3.071 2.15-0.823-2.898 3.957-5.652-1.625 0.521-3.179 4.539-1.549 0.507z">
    </path>
</svg>
